<svg width="861" height="408" xmlns="http://www.w3.org/2000/svg" class="icon">
 <defs>
  <style type="text/css"/>
 </defs>
 <g>
  <title>background</title>
  <rect fill="none" id="canvas_background" height="420" width="860" y="-1" x="-1"/>
 </g>
 <g>
  <path stroke="null" id="svg_1" class="selected" fill="#13227a" d="m211.963815,213.431881l-14.761744,19.061537q-32.058621,41.850142 -49.736334,41.850142q-15.739417,0 -25.067112,-11.917333q-9.128748,-11.917336 -9.128748,-32.57508q0,-20.657747 7.576974,-39.727031q7.576974,-19.332737 30.694423,-63.298245q14.380906,-27.275044 14.380906,-39.727031q0,-22.780859 -22.73661,-22.780859q-24.669219,0 -51.288105,22.253954q-26.613201,22.238459 -40.795161,49.521252q-14.181961,27.019339 -14.181961,52.442468q0,12.978892 5.047528,19.061534q5.246473,5.83469 10.879469,5.83469q16.711407,0 31.672096,-28.6078q14.955004,-28.863504 21.565672,-56.936653q4.854268,-22.246208 7.184769,-27.817444q2.529449,-5.819191 6.803931,-5.819191q5.627311,0 5.627311,21.184649q0,41.842396 -21.952198,76.540591q-21.758935,34.698191 -48.957603,34.698191q-16.313517,0 -23.117446,-12.188533q-6.604986,-12.444241 -6.604986,-25.957783q0,-33.101985 19.428434,-66.46742q19.428431,-33.373185 48.764341,-52.969373q29.529172,-19.867388 55.176067,-19.867388q25.061427,0 39.050125,18.278928q14.181961,18.007728 14.181961,45.817422q0,21.719303 -10.100738,45.019317q-10.106423,23.307767 -26.425623,54.030932q-8.742228,16.953918 -13.01671,24.369319q-4.274482,7.144201 -4.274482,14.830806q0,7.671106 6.025201,7.671106q9.520955,0 43.32461,-45.546222q33.996915,-45.817426 60.229277,-90.844493q21.372412,-37.340462 36.719624,-53.496275q15.347209,-16.427016 21.758935,-16.427016q3.495752,0 3.495752,4.509681q0,3.176925 -2.722709,6.8885q-18.263181,25.159675 -30.694423,57.200104q-12.23798,31.784721 -29.335909,99.584901q-13.988698,55.355939 -28.562864,84.482894q-14.568484,28.871254 -32.445141,47.405886q-17.870975,18.278928 -40.408638,28.6078q-22.338718,10.328872 -45.075328,10.328872q-33.803652,0 -52.260095,-16.953918q-18.263181,-17.209623 -18.263181,-45.282771q0,-20.130839 11.072729,-35.48855q11.271674,-15.628908 28.363919,-15.628908q12.823447,0 20.792629,8.213507q7.963497,8.213507 7.963497,20.657747q0,12.971142 -6.218464,20.921195q-6.212779,7.678856 -13.016708,7.678856q-19.814956,0 -19.814956,14.303902q0,10.855777 10.100738,19.596188q10.106423,8.476957 26.033418,8.476957q41.380629,0 68.198459,-70.977097q18.257498,-50.590557 38.856865,-94.021414l-0.005682,0z"/>
  <text stroke="null" transform="matrix(12.60805801789417,0,0,12.532819834108293,-3666.396596465611,-4659.654063664281) " xml:space="preserve" text-anchor="start" font-family="Helvetica, Arial, sans-serif" font-size="24" id="svg_6" y="394.237332" x="314.1245" fill-opacity="null" stroke-opacity="null" stroke-width="0" fill="#000000">mall</text>
 </g>
</svg>